# xmcd
#
# Track frame offsets: 
#        150
#        10131
#        19379
#        31133
#        44166
#        54945
#        69050
#        78629
#        90681
#        98147
#        110348
#        130226
#        138740
#        149872
#        168989
#        179435
#        188266
#        201210
#        214745
#        226983
#
# Disc length: 3155 seconds
#
# Revision: 3
# Processed by: cddbd v1.5.2PL0 Copyright (c) Steve Scherf et al.
# Submitted via: ExactAudioCopy v0.95b4
#
DISCID=190c5114
DTITLE=Various Artist - The Very Best Of Country and Western
DYEAR=1900
DGENRE=Country
TTITLE0=Anne Murray - It's All Over
TTITLE1=Don Williams - Appartment 9
TTITLE2=Bob Wills - Bob Wills Waltz
TTITLE3=Barbara Mandrell - Don't Touch Me
TTITLE4=Conway Twitty - Have I Been Away Too Long
TTITLE5=Bonnie Taylor - Naturally
TTITLE6=Freddy Fender - But I Do
TTITLE7=Kitty Wells - Loneley Side Of Town
TTITLE8=Glen Yarborough - Lonesome Valley
TTITLE9=George Jones - Blue Side Of Lonesome
TTITLE10=Tanya Tucker - Delta Dawn
TTITLE11=Mel Tillis - I Got The Hoss
TTITLE12=Gene Watson - Memories To Burn
TTITLE13=Tina Turner - Lovin' Him Was Easier
TTITLE14=Willie Nelson - Blame It On The Timesq
TTITLE15=Porter Wagoner - Can You Tell Me?
TTITLE16=Gibbs, Terri Gibbs - Now I Lay Me Down To Sleep
TTITLE17=Atlanta - Can t You Hear
TTITLE18=Nitty Gritty Dirt Band - High Horse
TTITLE19=Willie Nelson - Ashamed
EXTD=
EXTT0=
EXTT1=
EXTT2=
EXTT3=
EXTT4=
EXTT5=
EXTT6=
EXTT7=
EXTT8=
EXTT9=
EXTT10=
EXTT11=
EXTT12=
EXTT13=
EXTT14=
EXTT15=
EXTT16=
EXTT17=
EXTT18=
EXTT19=
PLAYORDER=
